<?xml version="1.0" encoding="utf-8"?>
<!-- Svg Vector Icons : http://www.onlinewebfonts.com/icon -->
<!DOCTYPE svg PUBLIC "-//W3C//DTD SVG 1.1//EN" "http://www.w3.org/Graphics/SVG/1.1/DTD/svg11.dtd">
<svg version="1.1" xmlns="http://www.w3.org/2000/svg" xmlns:xlink="http://www.w3.org/1999/xlink" x="0px" y="0px" viewBox="0 0 1000 1000" enable-background="new 0 0 1000 1000" xml:space="preserve">
<g><g transform="translate(0.000000,512.000000) scale(0.100000,-0.100000)"><path d="M4693.2,5008.4c-1783.5-138.1-3277.5-1470.9-3605.4-3218c-69-368.2-76.7-575.3-76.7-1904.3v-1302.1H704.2H397.4v-1227.4v-1227.4h1332.8h1332.8l187.9-186c360.5-362.5,788.2-592.6,1284.9-690.4c205.2-40.3,661.6-44.1,866.8-7.7c349,61.3,767.1,241.6,1045.2,446.8c74.8,55.6,209,176.4,301.1,268.5l166.8,168.8h1342.4h1344.3v1227.4v1227.4h-304.9h-306.8L8983.2,8.8c-5.8,1246.5-11.5,1447.9-40.3,1624.3c-153.4,909-554.2,1674.2-1202.4,2291.7C6931.2,4695.8,5809.3,5094.7,4693.2,5008.4z M5537,4367.9c1081.6-180.3,1994.5-851.5,2481.6-1825.7c176.4-352.9,276.1-678.9,327.9-1079.7c21.1-159.2,28.8-498.6,28.8-1540v-1338.6H5000H1624.7v1329c0,782.5,7.7,1398,19.2,1499.7c130.4,1133.4,824.6,2128.7,1841,2636.9C3880,4249,4208,4341,4731.5,4402.4C4858.1,4417.7,5374,4396.6,5537,4367.9z M8988.9-2643.5v-613.7H5000H1011.1v613.7v613.7H5000h3988.9V-2643.5z M5978.1-3891.9c-72.9-49.9-308.8-161.1-425.7-201.4c-306.8-103.6-742.2-113.2-1056.7-19.2c-143.8,42.2-398.9,157.2-492.9,220.5c-19.2,15.3,285.7,21.1,987.6,21.1C5692.3-3870.8,5997.2-3876.6,5978.1-3891.9z"/></g></g>
</svg>